<?xml version="1.0" standalone="no"?>
<!DOCTYPE svg PUBLIC "-//W3C//DTD SVG 20010904//EN"
 "http://www.w3.org/TR/2001/REC-SVG-20010904/DTD/svg10.dtd">
<svg version="1.0" xmlns="http://www.w3.org/2000/svg"
 width="500.000000pt" height="500.000000pt" viewBox="0 0 500.000000 500.000000"
 preserveAspectRatio="xMidYMid meet">

<g transform="translate(0.000000,500.000000) scale(0.100000,-0.100000)"
fill="#000000" stroke="none">
<path d="M1832 3690 c2 -6 48 -62 103 -125 97 -113 99 -115 112 -91 26 50 98
35 109 -24 5 -22 13 -30 35 -35 42 -9 65 -48 50 -81 -6 -14 -20 -28 -31 -31
-11 -3 -20 -9 -20 -13 0 -4 24 -30 54 -59 l55 -51 176 0 c138 0 175 3 169 13
-4 6 -90 123 -192 260 l-184 247 -220 0 c-144 0 -219 -3 -216 -10z"/>
<path d="M1790 3257 l0 -407 328 1 c180 1 427 4 550 8 l223 6 -98 132 -98 132
-188 1 c-216 0 -228 3 -301 79 -48 49 -50 50 -60 28 -8 -15 -22 -23 -46 -25
-40 -4 -60 16 -60 60 0 24 -4 28 -29 28 -69 0 -86 84 -22 108 23 8 20 12 -69
113 -51 57 -101 113 -111 124 -19 19 -19 11 -19 -388z"/>
<path d="M2078 3418 c-3 -43 -3 -43 -45 -46 -29 -2 -43 -8 -43 -17 0 -9 14
-15 43 -17 42 -3 42 -3 45 -45 4 -53 32 -62 32 -10 0 42 15 57 57 57 23 0 33
5 33 15 0 10 -10 15 -33 15 -42 0 -57 15 -57 57 0 52 -28 43 -32 -9z"/>
<path d="M1790 2786 c0 -57 -7 -56 623 -56 l579 0 -32 40 -32 40 -569 0 -569
0 0 -24z"/>
</g>
</svg>
